solid ur3dassfixture
   facet normal -4.411630e-024 -1.000000e+000 0.000000e+000
      outer loop
         vertex 7.500000e+001 -1.050000e+002 7.000000e+001
         vertex -7.500000e+001 -1.050000e+002 7.000000e+001
         vertex 7.500000e+001 -1.050000e+002 0.000000e+000
      endloop
   endfacet
   facet normal -4.411630e-024 -1.000000e+000 0.000000e+000
      outer loop
         vertex 7.500000e+001 -1.050000e+002 0.000000e+000
         vertex -7.500000e+001 -1.050000e+002 7.000000e+001
         vertex -7.500000e+001 -1.050000e+002 0.000000e+000
      endloop
   endfacet
   facet normal 1.000000e+000 -1.850372e-016 0.000000e+000
      outer loop
         vertex 7.500000e+001 1.050000e+002 7.000000e+001
         vertex 7.500000e+001 -1.050000e+002 7.000000e+001
         vertex 7.500000e+001 1.050000e+002 0.000000e+000
      endloop
   endfacet
   facet normal 1.000000e+000 -1.850372e-016 0.000000e+000
      outer loop
         vertex 7.500000e+001 1.050000e+002 0.000000e+000
         vertex 7.500000e+001 -1.050000e+002 7.000000e+001
         vertex 7.500000e+001 -1.050000e+002 0.000000e+000
      endloop
   endfacet
   facet normal 4.411630e-024 1.000000e+000 0.000000e+000
      outer loop
         vertex -7.500000e+001 1.050000e+002 7.000000e+001
         vertex 7.500000e+001 1.050000e+002 7.000000e+001
         vertex -7.500000e+001 1.050000e+002 0.000000e+000
      endloop
   endfacet
   facet normal 4.411630e-024 1.000000e+000 0.000000e+000
      outer loop
         vertex -7.500000e+001 1.050000e+002 0.000000e+000
         vertex 7.500000e+001 1.050000e+002 7.000000e+001
         vertex 7.500000e+001 1.050000e+002 0.000000e+000
      endloop
   endfacet
   facet normal -1.000000e+000 1.850372e-016 0.000000e+000
      outer loop
         vertex -7.500000e+001 -1.050000e+002 7.000000e+001
         vertex -7.500000e+001 1.050000e+002 7.000000e+001
         vertex -7.500000e+001 -1.050000e+002 0.000000e+000
      endloop
   endfacet
   facet normal -1.000000e+000 1.850372e-016 0.000000e+000
      outer loop
         vertex -7.500000e+001 -1.050000e+002 0.000000e+000
         vertex -7.500000e+001 1.050000e+002 7.000000e+001
         vertex -7.500000e+001 1.050000e+002 0.000000e+000
      endloop
   endfacet
   facet normal 0.000000e+000 0.000000e+000 1.000000e+000
      outer loop
         vertex 7.500000e+001 1.050000e+002 7.000000e+001
         vertex -7.500000e+001 1.050000e+002 7.000000e+001
         vertex 7.500000e+001 -1.050000e+002 7.000000e+001
      endloop
   endfacet
   facet normal 0.000000e+000 0.000000e+000 1.000000e+000
      outer loop
         vertex 7.500000e+001 -1.050000e+002 7.000000e+001
         vertex -7.500000e+001 1.050000e+002 7.000000e+001
         vertex -7.500000e+001 -1.050000e+002 7.000000e+001
      endloop
   endfacet
   facet normal 0.000000e+000 0.000000e+000 -1.000000e+000
      outer loop
         vertex -7.500000e+001 1.050000e+002 0.000000e+000
         vertex 7.500000e+001 1.050000e+002 0.000000e+000
         vertex -7.500000e+001 -1.050000e+002 0.000000e+000
      endloop
   endfacet
   facet normal 0.000000e+000 0.000000e+000 -1.000000e+000
      outer loop
         vertex -7.500000e+001 -1.050000e+002 0.000000e+000
         vertex 7.500000e+001 1.050000e+002 0.000000e+000
         vertex 7.500000e+001 -1.050000e+002 0.000000e+000
      endloop
   endfacet
endsolid