solid ur3dassshelf
   facet normal 0.000000e+000 0.000000e+000 -1.000000e+000
      outer loop
         vertex 8.600000e+002 -6.500000e+001 0.000000e+000
         vertex 8.300000e+002 -6.500000e+001 0.000000e+000
         vertex 8.600000e+002 -3.500000e+001 0.000000e+000
      endloop
   endfacet
   facet normal 0.000000e+000 0.000000e+000 -1.000000e+000
      outer loop
         vertex 8.600000e+002 -3.500000e+001 0.000000e+000
         vertex 8.300000e+002 -6.500000e+001 0.000000e+000
         vertex 8.300000e+002 -3.500000e+001 0.000000e+000
      endloop
   endfacet
   facet normal 0.000000e+000 0.000000e+000 -1.000000e+000
      outer loop
         vertex 2.999999e+001 -6.500000e+001 0.000000e+000
         vertex -7.152558e-006 -6.500000e+001 0.000000e+000
         vertex 2.999999e+001 -3.500000e+001 0.000000e+000
      endloop
   endfacet
   facet normal 0.000000e+000 0.000000e+000 -1.000000e+000
      outer loop
         vertex 2.999999e+001 -3.500000e+001 0.000000e+000
         vertex -7.152558e-006 -6.500000e+001 0.000000e+000
         vertex -7.152558e-006 -3.500000e+001 0.000000e+000
      endloop
   endfacet
   facet normal -1.000000e+000 4.616822e-024 0.000000e+000
      outer loop
         vertex 8.300000e+002 -3.500000e+001 0.000000e+000
         vertex 8.300000e+002 -6.500000e+001 0.000000e+000
         vertex 8.300000e+002 -3.500000e+001 1.600000e+002
      endloop
   endfacet
   facet normal -1.000000e+000 4.616822e-024 0.000000e+000
      outer loop
         vertex 8.300000e+002 -3.500000e+001 1.600000e+002
         vertex 8.300000e+002 -6.500000e+001 0.000000e+000
         vertex 8.300000e+002 -6.500000e+001 1.600000e+002
      endloop
   endfacet
   facet normal 1.000000e+000 -4.616822e-024 0.000000e+000
      outer loop
         vertex 2.999999e+001 -3.500000e+001 1.600000e+002
         vertex 2.999999e+001 -6.500000e+001 1.600000e+002
         vertex 2.999999e+001 -3.500000e+001 0.000000e+000
      endloop
   endfacet
   facet normal 1.000000e+000 -4.616822e-024 0.000000e+000
      outer loop
         vertex 2.999999e+001 -3.500000e+001 0.000000e+000
         vertex 2.999999e+001 -6.500000e+001 1.600000e+002
         vertex 2.999999e+001 -6.500000e+001 0.000000e+000
      endloop
   endfacet
   facet normal 0.000000e+000 0.000000e+000 -1.000000e+000
      outer loop
         vertex 8.300000e+002 6.500000e+001 0.000000e+000
         vertex 8.600000e+002 6.500000e+001 0.000000e+000
         vertex 8.300000e+002 3.500000e+001 0.000000e+000
      endloop
   endfacet
   facet normal 0.000000e+000 0.000000e+000 -1.000000e+000
      outer loop
         vertex 8.300000e+002 3.500000e+001 0.000000e+000
         vertex 8.600000e+002 6.500000e+001 0.000000e+000
         vertex 8.600000e+002 3.500000e+001 0.000000e+000
      endloop
   endfacet
   facet normal -1.000000e+000 1.290957e-016 0.000000e+000
      outer loop
         vertex -7.152558e-006 -3.500000e+001 0.000000e+000
         vertex -7.152558e-006 -6.500000e+001 0.000000e+000
         vertex -7.152558e-006 -3.500000e+001 1.600000e+002
      endloop
   endfacet
   facet normal -1.000000e+000 1.290957e-016 0.000000e+000
      outer loop
         vertex -7.152558e-006 -3.500000e+001 1.600000e+002
         vertex -7.152558e-006 -6.500000e+001 0.000000e+000
         vertex -7.152558e-006 -6.500000e+001 1.900000e+002
      endloop
   endfacet
   facet normal -1.000000e+000 1.290957e-016 0.000000e+000
      outer loop
         vertex -7.152558e-006 -3.500000e+001 1.600000e+002
         vertex -7.152558e-006 -6.500000e+001 1.900000e+002
         vertex -7.152558e-006 3.500000e+001 1.600000e+002
      endloop
   endfacet
   facet normal -1.000000e+000 1.290957e-016 0.000000e+000
      outer loop
         vertex -7.152558e-006 3.500000e+001 1.600000e+002
         vertex -7.152558e-006 -6.500000e+001 1.900000e+002
         vertex -7.152558e-006 6.500000e+001 1.900000e+002
      endloop
   endfacet
   facet normal -1.000000e+000 1.290957e-016 0.000000e+000
      outer loop
         vertex -7.152558e-006 3.500000e+001 1.600000e+002
         vertex -7.152558e-006 6.500000e+001 1.900000e+002
         vertex -7.152558e-006 3.500000e+001 0.000000e+000
      endloop
   endfacet
   facet normal -1.000000e+000 1.290957e-016 0.000000e+000
      outer loop
         vertex -7.152558e-006 3.500000e+001 0.000000e+000
         vertex -7.152558e-006 6.500000e+001 1.900000e+002
         vertex -7.152558e-006 6.500000e+001 0.000000e+000
      endloop
   endfacet
   facet normal -4.616822e-024 -1.000000e+000 0.000000e+000
      outer loop
         vertex 8.300000e+002 -6.500000e+001 5.551115e-014
         vertex 8.600000e+002 -6.500000e+001 5.551115e-014
         vertex 8.300000e+002 -6.500000e+001 1.600000e+002
      endloop
   endfacet
   facet normal -4.616822e-024 -1.000000e+000 0.000000e+000
      outer loop
         vertex 8.300000e+002 -6.500000e+001 1.600000e+002
         vertex 8.600000e+002 -6.500000e+001 5.551115e-014
         vertex 8.600000e+002 -6.500000e+001 1.900000e+002
      endloop
   endfacet
   facet normal -4.616822e-024 -1.000000e+000 0.000000e+000
      outer loop
         vertex 8.300000e+002 -6.500000e+001 1.600000e+002
         vertex 8.600000e+002 -6.500000e+001 1.900000e+002
         vertex 2.999999e+001 -6.500000e+001 1.600000e+002
      endloop
   endfacet
   facet normal -4.616822e-024 -1.000000e+000 0.000000e+000
      outer loop
         vertex 2.999999e+001 -6.500000e+001 1.600000e+002
         vertex 8.600000e+002 -6.500000e+001 1.900000e+002
         vertex -7.152558e-006 -6.500000e+001 1.900000e+002
      endloop
   endfacet
   facet normal -4.616822e-024 -1.000000e+000 0.000000e+000
      outer loop
         vertex 2.999999e+001 -6.500000e+001 1.600000e+002
         vertex -7.152558e-006 -6.500000e+001 1.900000e+002
         vertex 2.999999e+001 -6.500000e+001 5.551115e-014
      endloop
   endfacet
   facet normal -4.616822e-024 -1.000000e+000 0.000000e+000
      outer loop
         vertex 2.999999e+001 -6.500000e+001 5.551115e-014
         vertex -7.152558e-006 -6.500000e+001 1.900000e+002
         vertex -7.152558e-006 -6.500000e+001 5.551115e-014
      endloop
   endfacet
   facet normal 1.000000e+000 -1.290957e-016 0.000000e+000
      outer loop
         vertex 8.600000e+002 3.500000e+001 0.000000e+000
         vertex 8.600000e+002 6.500000e+001 0.000000e+000
         vertex 8.600000e+002 3.500000e+001 1.600000e+002
      endloop
   endfacet
   facet normal 1.000000e+000 -1.290957e-016 0.000000e+000
      outer loop
         vertex 8.600000e+002 3.500000e+001 1.600000e+002
         vertex 8.600000e+002 6.500000e+001 0.000000e+000
         vertex 8.600000e+002 6.500000e+001 1.900000e+002
      endloop
   endfacet
   facet normal 1.000000e+000 -1.290957e-016 0.000000e+000
      outer loop
         vertex 8.600000e+002 3.500000e+001 1.600000e+002
         vertex 8.600000e+002 6.500000e+001 1.900000e+002
         vertex 8.600000e+002 -3.500000e+001 1.600000e+002
      endloop
   endfacet
   facet normal 1.000000e+000 -1.290957e-016 0.000000e+000
      outer loop
         vertex 8.600000e+002 -3.500000e+001 1.600000e+002
         vertex 8.600000e+002 6.500000e+001 1.900000e+002
         vertex 8.600000e+002 -6.500000e+001 1.900000e+002
      endloop
   endfacet
   facet normal 1.000000e+000 -1.290957e-016 0.000000e+000
      outer loop
         vertex 8.600000e+002 -3.500000e+001 1.600000e+002
         vertex 8.600000e+002 -6.500000e+001 1.900000e+002
         vertex 8.600000e+002 -3.500000e+001 0.000000e+000
      endloop
   endfacet
   facet normal 1.000000e+000 -1.290957e-016 0.000000e+000
      outer loop
         vertex 8.600000e+002 -3.500000e+001 0.000000e+000
         vertex 8.600000e+002 -6.500000e+001 1.900000e+002
         vertex 8.600000e+002 -6.500000e+001 0.000000e+000
      endloop
   endfacet
   facet normal 4.616822e-024 1.000000e+000 0.000000e+000
      outer loop
         vertex 2.999999e+001 6.500000e+001 5.551115e-014
         vertex -7.152558e-006 6.500000e+001 5.551115e-014
         vertex 2.999999e+001 6.500000e+001 1.600000e+002
      endloop
   endfacet
   facet normal 4.616822e-024 1.000000e+000 0.000000e+000
      outer loop
         vertex 2.999999e+001 6.500000e+001 1.600000e+002
         vertex -7.152558e-006 6.500000e+001 5.551115e-014
         vertex -7.152558e-006 6.500000e+001 1.900000e+002
      endloop
   endfacet
   facet normal 4.616822e-024 1.000000e+000 0.000000e+000
      outer loop
         vertex 2.999999e+001 6.500000e+001 1.600000e+002
         vertex -7.152558e-006 6.500000e+001 1.900000e+002
         vertex 8.300000e+002 6.500000e+001 1.600000e+002
      endloop
   endfacet
   facet normal 4.616822e-024 1.000000e+000 0.000000e+000
      outer loop
         vertex 8.300000e+002 6.500000e+001 1.600000e+002
         vertex -7.152558e-006 6.500000e+001 1.900000e+002
         vertex 8.600000e+002 6.500000e+001 1.900000e+002
      endloop
   endfacet
   facet normal 4.616822e-024 1.000000e+000 0.000000e+000
      outer loop
         vertex 8.300000e+002 6.500000e+001 1.600000e+002
         vertex 8.600000e+002 6.500000e+001 1.900000e+002
         vertex 8.300000e+002 6.500000e+001 5.551115e-014
      endloop
   endfacet
   facet normal 4.616822e-024 1.000000e+000 0.000000e+000
      outer loop
         vertex 8.300000e+002 6.500000e+001 5.551115e-014
         vertex 8.600000e+002 6.500000e+001 1.900000e+002
         vertex 8.600000e+002 6.500000e+001 5.551115e-014
      endloop
   endfacet
   facet normal 0.000000e+000 0.000000e+000 1.000000e+000
      outer loop
         vertex 8.600000e+002 -6.500000e+001 1.900000e+002
         vertex 8.600000e+002 6.500000e+001 1.900000e+002
         vertex -7.152558e-006 -6.500000e+001 1.900000e+002
      endloop
   endfacet
   facet normal 0.000000e+000 0.000000e+000 1.000000e+000
      outer loop
         vertex -7.152558e-006 -6.500000e+001 1.900000e+002
         vertex 8.600000e+002 6.500000e+001 1.900000e+002
         vertex -7.152558e-006 6.500000e+001 1.900000e+002
      endloop
   endfacet
   facet normal 0.000000e+000 0.000000e+000 -1.000000e+000
      outer loop
         vertex -7.152558e-006 6.500000e+001 0.000000e+000
         vertex 2.999999e+001 6.500000e+001 0.000000e+000
         vertex -7.152558e-006 3.500000e+001 0.000000e+000
      endloop
   endfacet
   facet normal 0.000000e+000 0.000000e+000 -1.000000e+000
      outer loop
         vertex -7.152558e-006 3.500000e+001 0.000000e+000
         vertex 2.999999e+001 6.500000e+001 0.000000e+000
         vertex 2.999999e+001 3.500000e+001 0.000000e+000
      endloop
   endfacet
   facet normal -1.000000e+000 4.616822e-024 0.000000e+000
      outer loop
         vertex 8.300000e+002 3.500000e+001 1.600000e+002
         vertex 8.300000e+002 6.500000e+001 1.600000e+002
         vertex 8.300000e+002 3.500000e+001 0.000000e+000
      endloop
   endfacet
   facet normal -1.000000e+000 4.616822e-024 0.000000e+000
      outer loop
         vertex 8.300000e+002 3.500000e+001 0.000000e+000
         vertex 8.300000e+002 6.500000e+001 1.600000e+002
         vertex 8.300000e+002 6.500000e+001 0.000000e+000
      endloop
   endfacet
   facet normal 0.000000e+000 0.000000e+000 -1.000000e+000
      outer loop
         vertex 8.600000e+002 3.500000e+001 1.600000e+002
         vertex 8.600000e+002 -3.500000e+001 1.600000e+002
         vertex 8.300000e+002 3.500000e+001 1.600000e+002
      endloop
   endfacet
   facet normal 0.000000e+000 0.000000e+000 -1.000000e+000
      outer loop
         vertex 8.300000e+002 3.500000e+001 1.600000e+002
         vertex 8.600000e+002 -3.500000e+001 1.600000e+002
         vertex 8.300000e+002 -3.500000e+001 1.600000e+002
      endloop
   endfacet
   facet normal 0.000000e+000 0.000000e+000 -1.000000e+000
      outer loop
         vertex 8.300000e+002 -6.500000e+001 1.600000e+002
         vertex 2.999999e+001 -6.500000e+001 1.600000e+002
         vertex 8.300000e+002 -3.500000e+001 1.600000e+002
      endloop
   endfacet
   facet normal 0.000000e+000 0.000000e+000 -1.000000e+000
      outer loop
         vertex 8.300000e+002 -3.500000e+001 1.600000e+002
         vertex 2.999999e+001 -6.500000e+001 1.600000e+002
         vertex 2.999999e+001 -3.500000e+001 1.600000e+002
      endloop
   endfacet
   facet normal 0.000000e+000 0.000000e+000 -1.000000e+000
      outer loop
         vertex -7.152558e-006 -3.500000e+001 1.600000e+002
         vertex -7.152558e-006 3.500000e+001 1.600000e+002
         vertex 2.999999e+001 -3.500000e+001 1.600000e+002
      endloop
   endfacet
   facet normal 0.000000e+000 0.000000e+000 -1.000000e+000
      outer loop
         vertex 2.999999e+001 -3.500000e+001 1.600000e+002
         vertex -7.152558e-006 3.500000e+001 1.600000e+002
         vertex 2.999999e+001 3.500000e+001 1.600000e+002
      endloop
   endfacet
   facet normal 0.000000e+000 0.000000e+000 -1.000000e+000
      outer loop
         vertex 2.999999e+001 -3.500000e+001 1.600000e+002
         vertex 2.999999e+001 3.500000e+001 1.600000e+002
         vertex 8.300000e+002 -3.500000e+001 1.600000e+002
      endloop
   endfacet
   facet normal 0.000000e+000 0.000000e+000 -1.000000e+000
      outer loop
         vertex 8.300000e+002 -3.500000e+001 1.600000e+002
         vertex 2.999999e+001 3.500000e+001 1.600000e+002
         vertex 2.999999e+001 6.500000e+001 1.600000e+002
      endloop
   endfacet
   facet normal 0.000000e+000 0.000000e+000 -1.000000e+000
      outer loop
         vertex 8.300000e+002 -3.500000e+001 1.600000e+002
         vertex 2.999999e+001 6.500000e+001 1.600000e+002
         vertex 8.300000e+002 3.500000e+001 1.600000e+002
      endloop
   endfacet
   facet normal 0.000000e+000 0.000000e+000 -1.000000e+000
      outer loop
         vertex 8.300000e+002 3.500000e+001 1.600000e+002
         vertex 2.999999e+001 6.500000e+001 1.600000e+002
         vertex 8.300000e+002 6.500000e+001 1.600000e+002
      endloop
   endfacet
   facet normal 1.000000e+000 -4.616822e-024 0.000000e+000
      outer loop
         vertex 2.999999e+001 3.500000e+001 0.000000e+000
         vertex 2.999999e+001 6.500000e+001 0.000000e+000
         vertex 2.999999e+001 3.500000e+001 1.600000e+002
      endloop
   endfacet
   facet normal 1.000000e+000 -4.616822e-024 0.000000e+000
      outer loop
         vertex 2.999999e+001 3.500000e+001 1.600000e+002
         vertex 2.999999e+001 6.500000e+001 0.000000e+000
         vertex 2.999999e+001 6.500000e+001 1.600000e+002
      endloop
   endfacet
   facet normal -1.290957e-016 -1.000000e+000 0.000000e+000
      outer loop
         vertex -7.152558e-006 3.500000e+001 0.000000e+000
         vertex 2.999999e+001 3.500000e+001 0.000000e+000
         vertex -7.152558e-006 3.500000e+001 1.600000e+002
      endloop
   endfacet
   facet normal -1.290957e-016 -1.000000e+000 0.000000e+000
      outer loop
         vertex -7.152558e-006 3.500000e+001 1.600000e+002
         vertex 2.999999e+001 3.500000e+001 0.000000e+000
         vertex 2.999999e+001 3.500000e+001 1.600000e+002
      endloop
   endfacet
   facet normal 1.290957e-016 1.000000e+000 0.000000e+000
      outer loop
         vertex -7.152558e-006 -3.500000e+001 1.600000e+002
         vertex 2.999999e+001 -3.500000e+001 1.600000e+002
         vertex -7.152558e-006 -3.500000e+001 0.000000e+000
      endloop
   endfacet
   facet normal 1.290957e-016 1.000000e+000 0.000000e+000
      outer loop
         vertex -7.152558e-006 -3.500000e+001 0.000000e+000
         vertex 2.999999e+001 -3.500000e+001 1.600000e+002
         vertex 2.999999e+001 -3.500000e+001 0.000000e+000
      endloop
   endfacet
   facet normal 1.290957e-016 1.000000e+000 0.000000e+000
      outer loop
         vertex 8.600000e+002 -3.500000e+001 0.000000e+000
         vertex 8.300000e+002 -3.500000e+001 0.000000e+000
         vertex 8.600000e+002 -3.500000e+001 1.600000e+002
      endloop
   endfacet
   facet normal 1.290957e-016 1.000000e+000 0.000000e+000
      outer loop
         vertex 8.600000e+002 -3.500000e+001 1.600000e+002
         vertex 8.300000e+002 -3.500000e+001 0.000000e+000
         vertex 8.300000e+002 -3.500000e+001 1.600000e+002
      endloop
   endfacet
   facet normal -1.290957e-016 -1.000000e+000 0.000000e+000
      outer loop
         vertex 8.600000e+002 3.500000e+001 1.600000e+002
         vertex 8.300000e+002 3.500000e+001 1.600000e+002
         vertex 8.600000e+002 3.500000e+001 0.000000e+000
      endloop
   endfacet
   facet normal -1.290957e-016 -1.000000e+000 0.000000e+000
      outer loop
         vertex 8.600000e+002 3.500000e+001 0.000000e+000
         vertex 8.300000e+002 3.500000e+001 1.600000e+002
         vertex 8.300000e+002 3.500000e+001 0.000000e+000
      endloop
   endfacet
endsolid