solid table
   facet normal -1.000000e+000 2.467162e-016 0.000000e+000
      outer loop
         vertex 1.192093e-005 5.400000e+002 7.500000e+002
         vertex 1.192093e-005 6.000000e+002 7.800000e+002
         vertex 1.192093e-005 5.400000e+002 1.200000e+002
      endloop
   endfacet
   facet normal -1.000000e+000 2.467162e-016 0.000000e+000
      outer loop
         vertex 1.192093e-005 5.400000e+002 1.200000e+002
         vertex 1.192093e-005 6.000000e+002 7.800000e+002
         vertex 1.192093e-005 6.000000e+002 0.000000e+000
      endloop
   endfacet
   facet normal -1.000000e+000 2.467162e-016 0.000000e+000
      outer loop
         vertex 1.192093e-005 5.400000e+002 1.200000e+002
         vertex 1.192093e-005 6.000000e+002 0.000000e+000
         vertex 1.192093e-005 -5.400000e+002 1.200000e+002
      endloop
   endfacet
   facet normal -1.000000e+000 2.467162e-016 0.000000e+000
      outer loop
         vertex 1.192093e-005 -5.400000e+002 1.200000e+002
         vertex 1.192093e-005 6.000000e+002 0.000000e+000
         vertex 1.192093e-005 -6.000000e+002 0.000000e+000
      endloop
   endfacet
   facet normal -1.000000e+000 2.467162e-016 0.000000e+000
      outer loop
         vertex 1.192093e-005 -5.400000e+002 1.200000e+002
         vertex 1.192093e-005 -6.000000e+002 0.000000e+000
         vertex 1.192093e-005 -5.400000e+002 7.500000e+002
      endloop
   endfacet
   facet normal -1.000000e+000 2.467162e-016 0.000000e+000
      outer loop
         vertex 1.192093e-005 -5.400000e+002 7.500000e+002
         vertex 1.192093e-005 -6.000000e+002 0.000000e+000
         vertex 1.192093e-005 -6.000000e+002 7.800000e+002
      endloop
   endfacet
   facet normal -1.000000e+000 2.467162e-016 0.000000e+000
      outer loop
         vertex 1.192093e-005 -5.400000e+002 7.500000e+002
         vertex 1.192093e-005 -6.000000e+002 7.800000e+002
         vertex 1.192093e-005 5.400000e+002 7.500000e+002
      endloop
   endfacet
   facet normal -1.000000e+000 2.467162e-016 0.000000e+000
      outer loop
         vertex 1.192093e-005 5.400000e+002 7.500000e+002
         vertex 1.192093e-005 -6.000000e+002 7.800000e+002
         vertex 1.192093e-005 6.000000e+002 7.800000e+002
      endloop
   endfacet
   facet normal -1.176435e-023 1.000000e+000 0.000000e+000
      outer loop
         vertex 1.192093e-005 6.000000e+002 7.800000e+002
         vertex 9.000000e+002 6.000000e+002 7.800000e+002
         vertex 1.192093e-005 6.000000e+002 0.000000e+000
      endloop
   endfacet
   facet normal -1.176435e-023 1.000000e+000 0.000000e+000
      outer loop
         vertex 1.192093e-005 6.000000e+002 0.000000e+000
         vertex 9.000000e+002 6.000000e+002 7.800000e+002
         vertex 9.000000e+002 6.000000e+002 0.000000e+000
      endloop
   endfacet
   facet normal 1.176435e-023 -1.000000e+000 0.000000e+000
      outer loop
         vertex 9.000000e+002 -6.000000e+002 7.800000e+002
         vertex 1.192093e-005 -6.000000e+002 7.800000e+002
         vertex 9.000000e+002 -6.000000e+002 0.000000e+000
      endloop
   endfacet
   facet normal 1.176435e-023 -1.000000e+000 0.000000e+000
      outer loop
         vertex 9.000000e+002 -6.000000e+002 0.000000e+000
         vertex 1.192093e-005 -6.000000e+002 7.800000e+002
         vertex 1.192093e-005 -6.000000e+002 0.000000e+000
      endloop
   endfacet
   facet normal 1.000000e+000 -2.467162e-016 0.000000e+000
      outer loop
         vertex 9.000000e+002 5.400000e+002 0.000000e+000
         vertex 9.000000e+002 6.000000e+002 0.000000e+000
         vertex 9.000000e+002 5.400000e+002 6.900000e+002
      endloop
   endfacet
   facet normal 1.000000e+000 -2.467162e-016 0.000000e+000
      outer loop
         vertex 9.000000e+002 5.400000e+002 6.900000e+002
         vertex 9.000000e+002 6.000000e+002 0.000000e+000
         vertex 9.000000e+002 6.000000e+002 7.800000e+002
      endloop
   endfacet
   facet normal 1.000000e+000 -2.467162e-016 0.000000e+000
      outer loop
         vertex 9.000000e+002 5.400000e+002 6.900000e+002
         vertex 9.000000e+002 6.000000e+002 7.800000e+002
         vertex 9.000000e+002 -5.400000e+002 6.900000e+002
      endloop
   endfacet
   facet normal 1.000000e+000 -2.467162e-016 0.000000e+000
      outer loop
         vertex 9.000000e+002 -5.400000e+002 6.900000e+002
         vertex 9.000000e+002 6.000000e+002 7.800000e+002
         vertex 9.000000e+002 -6.000000e+002 7.800000e+002
      endloop
   endfacet
   facet normal 1.000000e+000 -2.467162e-016 0.000000e+000
      outer loop
         vertex 9.000000e+002 -5.400000e+002 6.900000e+002
         vertex 9.000000e+002 -6.000000e+002 7.800000e+002
         vertex 9.000000e+002 -5.400000e+002 0.000000e+000
      endloop
   endfacet
   facet normal 1.000000e+000 -2.467162e-016 0.000000e+000
      outer loop
         vertex 9.000000e+002 -5.400000e+002 0.000000e+000
         vertex 9.000000e+002 -6.000000e+002 7.800000e+002
         vertex 9.000000e+002 -6.000000e+002 0.000000e+000
      endloop
   endfacet
   facet normal 0.000000e+000 0.000000e+000 1.000000e+000
      outer loop
         vertex 1.192093e-005 -6.000000e+002 7.800000e+002
         vertex 9.000000e+002 -6.000000e+002 7.800000e+002
         vertex 1.192093e-005 6.000000e+002 7.800000e+002
      endloop
   endfacet
   facet normal 0.000000e+000 0.000000e+000 1.000000e+000
      outer loop
         vertex 1.192093e-005 6.000000e+002 7.800000e+002
         vertex 9.000000e+002 -6.000000e+002 7.800000e+002
         vertex 9.000000e+002 6.000000e+002 7.800000e+002
      endloop
   endfacet
   facet normal 0.000000e+000 0.000000e+000 -1.000000e+000
      outer loop
         vertex 9.000000e+002 -5.400000e+002 0.000000e+000
         vertex 9.000000e+002 -6.000000e+002 0.000000e+000
         vertex 6.000002e+001 -5.400000e+002 0.000000e+000
      endloop
   endfacet
   facet normal 0.000000e+000 0.000000e+000 -1.000000e+000
      outer loop
         vertex 6.000002e+001 -5.400000e+002 0.000000e+000
         vertex 9.000000e+002 -6.000000e+002 0.000000e+000
         vertex 1.192093e-005 -6.000000e+002 0.000000e+000
      endloop
   endfacet
   facet normal 0.000000e+000 0.000000e+000 -1.000000e+000
      outer loop
         vertex 6.000002e+001 -5.400000e+002 0.000000e+000
         vertex 1.192093e-005 -6.000000e+002 0.000000e+000
         vertex 6.000002e+001 5.400000e+002 0.000000e+000
      endloop
   endfacet
   facet normal 0.000000e+000 0.000000e+000 -1.000000e+000
      outer loop
         vertex 6.000002e+001 5.400000e+002 0.000000e+000
         vertex 1.192093e-005 -6.000000e+002 0.000000e+000
         vertex 1.192093e-005 6.000000e+002 0.000000e+000
      endloop
   endfacet
   facet normal 0.000000e+000 0.000000e+000 -1.000000e+000
      outer loop
         vertex 6.000002e+001 5.400000e+002 0.000000e+000
         vertex 1.192093e-005 6.000000e+002 0.000000e+000
         vertex 9.000000e+002 5.400000e+002 0.000000e+000
      endloop
   endfacet
   facet normal 0.000000e+000 0.000000e+000 -1.000000e+000
      outer loop
         vertex 9.000000e+002 5.400000e+002 0.000000e+000
         vertex 1.192093e-005 6.000000e+002 0.000000e+000
         vertex 9.000000e+002 6.000000e+002 0.000000e+000
      endloop
   endfacet
   facet normal 2.467162e-016 1.000000e+000 3.218038e-016
      outer loop
         vertex 9.000000e+002 -5.400000e+002 6.900000e+002
         vertex 9.000000e+002 -5.400000e+002 0.000000e+000
         vertex 8.400000e+002 -5.400000e+002 6.900000e+002
      endloop
   endfacet
   facet normal 2.467162e-016 1.000000e+000 3.218038e-016
      outer loop
         vertex 8.400000e+002 -5.400000e+002 6.900000e+002
         vertex 9.000000e+002 -5.400000e+002 0.000000e+000
         vertex 6.000002e+001 -5.400000e+002 0.000000e+000
      endloop
   endfacet
   facet normal 2.467162e-016 1.000000e+000 3.218038e-016
      outer loop
         vertex 8.400000e+002 -5.400000e+002 6.900000e+002
         vertex 6.000002e+001 -5.400000e+002 0.000000e+000
         vertex 8.400000e+002 -5.400000e+002 7.500000e+002
      endloop
   endfacet
   facet normal 2.467162e-016 1.000000e+000 3.218038e-016
      outer loop
         vertex 8.400000e+002 -5.400000e+002 7.500000e+002
         vertex 6.000002e+001 -5.400000e+002 0.000000e+000
         vertex 6.000002e+001 -5.400000e+002 1.200000e+002
      endloop
   endfacet
   facet normal 2.467162e-016 1.000000e+000 3.218038e-016
      outer loop
         vertex 8.400000e+002 -5.400000e+002 7.500000e+002
         vertex 6.000002e+001 -5.400000e+002 1.200000e+002
         vertex 1.192093e-005 -5.400000e+002 7.500000e+002
      endloop
   endfacet
   facet normal 2.467162e-016 1.000000e+000 3.218038e-016
      outer loop
         vertex 1.192093e-005 -5.400000e+002 7.500000e+002
         vertex 6.000002e+001 -5.400000e+002 1.200000e+002
         vertex 1.192093e-005 -5.400000e+002 1.200000e+002
      endloop
   endfacet
   facet normal 0.000000e+000 0.000000e+000 -1.000000e+000
      outer loop
         vertex 8.400000e+002 5.400000e+002 6.900000e+002
         vertex 9.000000e+002 5.400000e+002 6.900000e+002
         vertex 8.400000e+002 -5.400000e+002 6.900000e+002
      endloop
   endfacet
   facet normal 0.000000e+000 0.000000e+000 -1.000000e+000
      outer loop
         vertex 8.400000e+002 -5.400000e+002 6.900000e+002
         vertex 9.000000e+002 5.400000e+002 6.900000e+002
         vertex 9.000000e+002 -5.400000e+002 6.900000e+002
      endloop
   endfacet
   facet normal -2.467162e-016 -1.000000e+000 1.609019e-016
      outer loop
         vertex 9.000000e+002 5.400000e+002 0.000000e+000
         vertex 9.000000e+002 5.400000e+002 6.900000e+002
         vertex 6.000002e+001 5.400000e+002 0.000000e+000
      endloop
   endfacet
   facet normal -2.467162e-016 -1.000000e+000 1.609019e-016
      outer loop
         vertex 6.000002e+001 5.400000e+002 0.000000e+000
         vertex 9.000000e+002 5.400000e+002 6.900000e+002
         vertex 8.400000e+002 5.400000e+002 6.900000e+002
      endloop
   endfacet
   facet normal -2.467162e-016 -1.000000e+000 1.609019e-016
      outer loop
         vertex 6.000002e+001 5.400000e+002 0.000000e+000
         vertex 8.400000e+002 5.400000e+002 6.900000e+002
         vertex 6.000002e+001 5.400000e+002 1.200000e+002
      endloop
   endfacet
   facet normal -2.467162e-016 -1.000000e+000 1.609019e-016
      outer loop
         vertex 6.000002e+001 5.400000e+002 1.200000e+002
         vertex 8.400000e+002 5.400000e+002 6.900000e+002
         vertex 8.400000e+002 5.400000e+002 7.500000e+002
      endloop
   endfacet
   facet normal -2.467162e-016 -1.000000e+000 1.609019e-016
      outer loop
         vertex 6.000002e+001 5.400000e+002 1.200000e+002
         vertex 8.400000e+002 5.400000e+002 7.500000e+002
         vertex 1.192093e-005 5.400000e+002 1.200000e+002
      endloop
   endfacet
   facet normal -2.467162e-016 -1.000000e+000 1.609019e-016
      outer loop
         vertex 1.192093e-005 5.400000e+002 1.200000e+002
         vertex 8.400000e+002 5.400000e+002 7.500000e+002
         vertex 1.192093e-005 5.400000e+002 7.500000e+002
      endloop
   endfacet
   facet normal 1.000000e+000 -2.467162e-016 0.000000e+000
      outer loop
         vertex 6.000002e+001 -5.400000e+002 0.000000e+000
         vertex 6.000002e+001 5.400000e+002 0.000000e+000
         vertex 6.000002e+001 -5.400000e+002 1.200000e+002
      endloop
   endfacet
   facet normal 1.000000e+000 -2.467162e-016 0.000000e+000
      outer loop
         vertex 6.000002e+001 -5.400000e+002 1.200000e+002
         vertex 6.000002e+001 5.400000e+002 0.000000e+000
         vertex 6.000002e+001 5.400000e+002 1.200000e+002
      endloop
   endfacet
   facet normal -1.000000e+000 2.467162e-016 0.000000e+000
      outer loop
         vertex 8.400000e+002 5.400000e+002 7.500000e+002
         vertex 8.400000e+002 5.400000e+002 6.900000e+002
         vertex 8.400000e+002 -5.400000e+002 7.500000e+002
      endloop
   endfacet
   facet normal -1.000000e+000 2.467162e-016 0.000000e+000
      outer loop
         vertex 8.400000e+002 -5.400000e+002 7.500000e+002
         vertex 8.400000e+002 5.400000e+002 6.900000e+002
         vertex 8.400000e+002 -5.400000e+002 6.900000e+002
      endloop
   endfacet
   facet normal 0.000000e+000 0.000000e+000 -1.000000e+000
      outer loop
         vertex 8.400000e+002 5.400000e+002 7.500000e+002
         vertex 8.400000e+002 -5.400000e+002 7.500000e+002
         vertex 1.192093e-005 5.400000e+002 7.500000e+002
      endloop
   endfacet
   facet normal 0.000000e+000 0.000000e+000 -1.000000e+000
      outer loop
         vertex 1.192093e-005 5.400000e+002 7.500000e+002
         vertex 8.400000e+002 -5.400000e+002 7.500000e+002
         vertex 1.192093e-005 -5.400000e+002 7.500000e+002
      endloop
   endfacet
   facet normal -3.170255e-033 -1.284980e-017 1.000000e+000
      outer loop
         vertex 1.192093e-005 5.400000e+002 1.200000e+002
         vertex 1.192093e-005 -5.400000e+002 1.200000e+002
         vertex 6.000002e+001 5.400000e+002 1.200000e+002
      endloop
   endfacet
   facet normal -3.170255e-033 -1.284980e-017 1.000000e+000
      outer loop
         vertex 6.000002e+001 5.400000e+002 1.200000e+002
         vertex 1.192093e-005 -5.400000e+002 1.200000e+002
         vertex 6.000002e+001 -5.400000e+002 1.200000e+002
      endloop
   endfacet
endsolid