solid ur3housing1200
   facet normal 1.000000e+000 0.000000e+000 0.000000e+000
      outer loop
         vertex 6.000000e+002 3.000000e+001 -1.102182e-013
         vertex 6.000000e+002 3.000000e+001 6.000000e+001
         vertex 6.000000e+002 -3.000000e+001 -1.102182e-013
      endloop
   endfacet
   facet normal 1.000000e+000 0.000000e+000 0.000000e+000
      outer loop
         vertex 6.000000e+002 -3.000000e+001 -1.102182e-013
         vertex 6.000000e+002 3.000000e+001 6.000000e+001
         vertex 6.000000e+002 -3.000000e+001 6.000000e+001
      endloop
   endfacet
   facet normal -1.836970e-016 0.000000e+000 -1.000000e+000
      outer loop
         vertex -6.000000e+002 3.000000e+001 1.102182e-013
         vertex 6.000000e+002 3.000000e+001 -1.102182e-013
         vertex -6.000000e+002 -3.000000e+001 1.102182e-013
      endloop
   endfacet
   facet normal -1.836970e-016 0.000000e+000 -1.000000e+000
      outer loop
         vertex -6.000000e+002 -3.000000e+001 1.102182e-013
         vertex 6.000000e+002 3.000000e+001 -1.102182e-013
         vertex 6.000000e+002 -3.000000e+001 -1.102182e-013
      endloop
   endfacet
   facet normal -1.000000e+000 0.000000e+000 0.000000e+000
      outer loop
         vertex -6.000000e+002 3.000000e+001 6.000000e+001
         vertex -6.000000e+002 3.000000e+001 1.102182e-013
         vertex -6.000000e+002 -3.000000e+001 6.000000e+001
      endloop
   endfacet
   facet normal -1.000000e+000 0.000000e+000 0.000000e+000
      outer loop
         vertex -6.000000e+002 -3.000000e+001 6.000000e+001
         vertex -6.000000e+002 3.000000e+001 1.102182e-013
         vertex -6.000000e+002 -3.000000e+001 1.102182e-013
      endloop
   endfacet
   facet normal 1.850372e-016 0.000000e+000 1.000000e+000
      outer loop
         vertex 6.000000e+002 3.000000e+001 6.000000e+001
         vertex -6.000000e+002 3.000000e+001 6.000000e+001
         vertex 6.000000e+002 -3.000000e+001 6.000000e+001
      endloop
   endfacet
   facet normal 1.850372e-016 0.000000e+000 1.000000e+000
      outer loop
         vertex 6.000000e+002 -3.000000e+001 6.000000e+001
         vertex -6.000000e+002 3.000000e+001 6.000000e+001
         vertex -6.000000e+002 -3.000000e+001 6.000000e+001
      endloop
   endfacet
   facet normal 0.000000e+000 1.000000e+000 0.000000e+000
      outer loop
         vertex -6.000000e+002 3.000000e+001 1.102182e-013
         vertex -6.000000e+002 3.000000e+001 6.000000e+001
         vertex 6.000000e+002 3.000000e+001 -1.102182e-013
      endloop
   endfacet
   facet normal 0.000000e+000 1.000000e+000 0.000000e+000
      outer loop
         vertex 6.000000e+002 3.000000e+001 -1.102182e-013
         vertex -6.000000e+002 3.000000e+001 6.000000e+001
         vertex 6.000000e+002 3.000000e+001 6.000000e+001
      endloop
   endfacet
   facet normal 0.000000e+000 -1.000000e+000 0.000000e+000
      outer loop
         vertex -6.000000e+002 -3.000000e+001 6.000000e+001
         vertex -6.000000e+002 -3.000000e+001 1.102182e-013
         vertex 6.000000e+002 -3.000000e+001 6.000000e+001
      endloop
   endfacet
   facet normal 0.000000e+000 -1.000000e+000 0.000000e+000
      outer loop
         vertex 6.000000e+002 -3.000000e+001 6.000000e+001
         vertex -6.000000e+002 -3.000000e+001 1.102182e-013
         vertex 6.000000e+002 -3.000000e+001 -1.102182e-013
      endloop
   endfacet
endsolid