solid ur3beam1900
   facet normal 0.000000e+000 1.000000e+000 0.000000e+000
      outer loop
         vertex -3.000000e+001 7.500000e+002 -1.377728e-013
         vertex -3.000000e+001 7.500000e+002 6.000000e+001
         vertex 3.000000e+001 7.500000e+002 -1.377728e-013
      endloop
   endfacet
   facet normal 0.000000e+000 1.000000e+000 0.000000e+000
      outer loop
         vertex 3.000000e+001 7.500000e+002 -1.377728e-013
         vertex -3.000000e+001 7.500000e+002 6.000000e+001
         vertex 3.000000e+001 7.500000e+002 6.000000e+001
      endloop
   endfacet
   facet normal 0.000000e+000 -1.836970e-016 -1.000000e+000
      outer loop
         vertex -3.000000e+001 -7.500000e+002 1.377728e-013
         vertex -3.000000e+001 7.500000e+002 -1.377728e-013
         vertex 3.000000e+001 -7.500000e+002 1.377728e-013
      endloop
   endfacet
   facet normal 0.000000e+000 -1.836970e-016 -1.000000e+000
      outer loop
         vertex 3.000000e+001 -7.500000e+002 1.377728e-013
         vertex -3.000000e+001 7.500000e+002 -1.377728e-013
         vertex 3.000000e+001 7.500000e+002 -1.377728e-013
      endloop
   endfacet
   facet normal 0.000000e+000 -1.000000e+000 0.000000e+000
      outer loop
         vertex -3.000000e+001 -7.500000e+002 6.000000e+001
         vertex -3.000000e+001 -7.500000e+002 1.377728e-013
         vertex 3.000000e+001 -7.500000e+002 6.000000e+001
      endloop
   endfacet
   facet normal 0.000000e+000 -1.000000e+000 0.000000e+000
      outer loop
         vertex 3.000000e+001 -7.500000e+002 6.000000e+001
         vertex -3.000000e+001 -7.500000e+002 1.377728e-013
         vertex 3.000000e+001 -7.500000e+002 1.377728e-013
      endloop
   endfacet
   facet normal 0.000000e+000 1.850372e-016 1.000000e+000
      outer loop
         vertex -3.000000e+001 7.500000e+002 6.000000e+001
         vertex -3.000000e+001 -7.500000e+002 6.000000e+001
         vertex 3.000000e+001 7.500000e+002 6.000000e+001
      endloop
   endfacet
   facet normal 0.000000e+000 1.850372e-016 1.000000e+000
      outer loop
         vertex 3.000000e+001 7.500000e+002 6.000000e+001
         vertex -3.000000e+001 -7.500000e+002 6.000000e+001
         vertex 3.000000e+001 -7.500000e+002 6.000000e+001
      endloop
   endfacet
   facet normal -1.000000e+000 0.000000e+000 0.000000e+000
      outer loop
         vertex -3.000000e+001 -7.500000e+002 1.377728e-013
         vertex -3.000000e+001 -7.500000e+002 6.000000e+001
         vertex -3.000000e+001 7.500000e+002 -1.377728e-013
      endloop
   endfacet
   facet normal -1.000000e+000 0.000000e+000 0.000000e+000
      outer loop
         vertex -3.000000e+001 7.500000e+002 -1.377728e-013
         vertex -3.000000e+001 -7.500000e+002 6.000000e+001
         vertex -3.000000e+001 7.500000e+002 6.000000e+001
      endloop
   endfacet
   facet normal 1.000000e+000 0.000000e+000 0.000000e+000
      outer loop
         vertex 3.000000e+001 -7.500000e+002 6.000000e+001
         vertex 3.000000e+001 -7.500000e+002 1.377728e-013
         vertex 3.000000e+001 7.500000e+002 6.000000e+001
      endloop
   endfacet
   facet normal 1.000000e+000 0.000000e+000 0.000000e+000
      outer loop
         vertex 3.000000e+001 7.500000e+002 6.000000e+001
         vertex 3.000000e+001 -7.500000e+002 1.377728e-013
         vertex 3.000000e+001 7.500000e+002 -1.377728e-013
      endloop
   endfacet
endsolid