solid ur3dtable
   facet normal 1.000000e+000 0.000000e+000 0.000000e+000
      outer loop
         vertex 8.600000e+002 -5.000000e+002 6.790000e+002
         vertex 8.600000e+002 5.000000e+002 7.090000e+002
         vertex 8.600000e+002 -5.000000e+002 7.090000e+002
      endloop
   endfacet
   facet normal 1.000000e+000 0.000000e+000 0.000000e+000
      outer loop
         vertex 8.600000e+002 5.000000e+002 1.430511e-005
         vertex 8.600000e+002 5.300000e+002 1.430511e-005
         vertex 8.600000e+002 5.000000e+002 6.790000e+002
      endloop
   endfacet
   facet normal 1.000000e+000 0.000000e+000 0.000000e+000
      outer loop
         vertex 8.600000e+002 5.000000e+002 6.790000e+002
         vertex 8.600000e+002 5.300000e+002 1.430511e-005
         vertex 8.600000e+002 5.300000e+002 1.030000e+003
      endloop
   endfacet
   facet normal 1.000000e+000 0.000000e+000 0.000000e+000
      outer loop
         vertex 8.600000e+002 5.300000e+002 1.030000e+003
         vertex 8.600000e+002 2.100000e+002 1.030000e+003
         vertex 8.600000e+002 2.100000e+002 1.000000e+003
      endloop
   endfacet
   facet normal 1.000000e+000 0.000000e+000 0.000000e+000
      outer loop
         vertex 8.600000e+002 -2.100000e+002 1.000000e+003
         vertex 8.600000e+002 -5.000000e+002 9.700000e+002
         vertex 8.600000e+002 2.100000e+002 1.000000e+003
      endloop
   endfacet
   facet normal 1.000000e+000 0.000000e+000 0.000000e+000
      outer loop
         vertex 8.600000e+002 2.100000e+002 1.000000e+003
         vertex 8.600000e+002 -5.000000e+002 9.700000e+002
         vertex 8.600000e+002 5.000000e+002 9.700000e+002
      endloop
   endfacet
   facet normal 1.000000e+000 0.000000e+000 0.000000e+000
      outer loop
         vertex 8.600000e+002 2.100000e+002 1.000000e+003
         vertex 8.600000e+002 5.000000e+002 9.700000e+002
         vertex 8.600000e+002 5.300000e+002 1.030000e+003
      endloop
   endfacet
   facet normal 1.000000e+000 0.000000e+000 0.000000e+000
      outer loop
         vertex 8.600000e+002 5.300000e+002 1.030000e+003
         vertex 8.600000e+002 5.000000e+002 9.700000e+002
         vertex 8.600000e+002 5.000000e+002 7.090000e+002
      endloop
   endfacet
   facet normal 1.000000e+000 0.000000e+000 0.000000e+000
      outer loop
         vertex 8.600000e+002 5.300000e+002 1.030000e+003
         vertex 8.600000e+002 5.000000e+002 7.090000e+002
         vertex 8.600000e+002 5.000000e+002 6.790000e+002
      endloop
   endfacet
   facet normal 1.000000e+000 0.000000e+000 0.000000e+000
      outer loop
         vertex 8.600000e+002 5.000000e+002 6.790000e+002
         vertex 8.600000e+002 5.000000e+002 7.090000e+002
         vertex 8.600000e+002 -5.000000e+002 6.790000e+002
      endloop
   endfacet
   facet normal 1.000000e+000 0.000000e+000 0.000000e+000
      outer loop
         vertex 8.600000e+002 -2.100000e+002 1.000000e+003
         vertex 8.600000e+002 -2.100000e+002 1.030000e+003
         vertex 8.600000e+002 -5.000000e+002 9.700000e+002
      endloop
   endfacet
   facet normal 1.000000e+000 0.000000e+000 0.000000e+000
      outer loop
         vertex 8.600000e+002 -5.000000e+002 9.700000e+002
         vertex 8.600000e+002 -2.100000e+002 1.030000e+003
         vertex 8.600000e+002 -5.300000e+002 1.030000e+003
      endloop
   endfacet
   facet normal 1.000000e+000 0.000000e+000 0.000000e+000
      outer loop
         vertex 8.600000e+002 -5.000000e+002 9.700000e+002
         vertex 8.600000e+002 -5.300000e+002 1.030000e+003
         vertex 8.600000e+002 -5.000000e+002 7.090000e+002
      endloop
   endfacet
   facet normal 1.000000e+000 0.000000e+000 0.000000e+000
      outer loop
         vertex 8.600000e+002 -5.000000e+002 7.090000e+002
         vertex 8.600000e+002 -5.300000e+002 1.030000e+003
         vertex 8.600000e+002 -5.300000e+002 1.430512e-005
      endloop
   endfacet
   facet normal 1.000000e+000 0.000000e+000 0.000000e+000
      outer loop
         vertex 8.600000e+002 -5.000000e+002 7.090000e+002
         vertex 8.600000e+002 -5.300000e+002 1.430512e-005
         vertex 8.600000e+002 -5.000000e+002 6.790000e+002
      endloop
   endfacet
   facet normal 1.000000e+000 0.000000e+000 0.000000e+000
      outer loop
         vertex 8.600000e+002 -5.000000e+002 6.790000e+002
         vertex 8.600000e+002 -5.300000e+002 1.430512e-005
         vertex 8.600000e+002 -5.000000e+002 1.430512e-005
      endloop
   endfacet
   facet normal -1.000000e+000 0.000000e+000 -0.000000e+000
      outer loop
         vertex 0.000000e+000 -5.000000e+002 6.790000e+002
         vertex 0.000000e+000 -5.000000e+002 1.430512e-005
         vertex 0.000000e+000 -5.300000e+002 1.430512e-005
      endloop
   endfacet
   facet normal -1.000000e+000 0.000000e+000 -0.000000e+000
      outer loop
         vertex 0.000000e+000 5.000000e+002 7.090000e+002
         vertex 0.000000e+000 5.000000e+002 9.700000e+002
         vertex 0.000000e+000 5.300000e+002 1.030000e+003
      endloop
   endfacet
   facet normal -1.000000e+000 0.000000e+000 -0.000000e+000
      outer loop
         vertex 0.000000e+000 -5.300000e+002 1.030000e+003
         vertex 0.000000e+000 -2.100000e+002 1.030000e+003
         vertex 0.000000e+000 -2.100000e+002 1.000000e+003
      endloop
   endfacet
   facet normal -1.000000e+000 0.000000e+000 -0.000000e+000
      outer loop
         vertex 0.000000e+000 2.100000e+002 1.030000e+003
         vertex 0.000000e+000 5.300000e+002 1.030000e+003
         vertex 0.000000e+000 2.100000e+002 1.000000e+003
      endloop
   endfacet
   facet normal -1.000000e+000 0.000000e+000 -0.000000e+000
      outer loop
         vertex 0.000000e+000 2.100000e+002 1.000000e+003
         vertex 0.000000e+000 5.300000e+002 1.030000e+003
         vertex 0.000000e+000 5.000000e+002 9.700000e+002
      endloop
   endfacet
   facet normal -1.000000e+000 0.000000e+000 -0.000000e+000
      outer loop
         vertex 0.000000e+000 2.100000e+002 1.000000e+003
         vertex 0.000000e+000 5.000000e+002 9.700000e+002
         vertex 0.000000e+000 -2.100000e+002 1.000000e+003
      endloop
   endfacet
   facet normal -1.000000e+000 0.000000e+000 -0.000000e+000
      outer loop
         vertex 0.000000e+000 -2.100000e+002 1.000000e+003
         vertex 0.000000e+000 5.000000e+002 9.700000e+002
         vertex 0.000000e+000 -5.000000e+002 9.700000e+002
      endloop
   endfacet
   facet normal -1.000000e+000 0.000000e+000 -0.000000e+000
      outer loop
         vertex 0.000000e+000 -2.100000e+002 1.000000e+003
         vertex 0.000000e+000 -5.000000e+002 9.700000e+002
         vertex 0.000000e+000 -5.300000e+002 1.030000e+003
      endloop
   endfacet
   facet normal -1.000000e+000 0.000000e+000 -0.000000e+000
      outer loop
         vertex 0.000000e+000 -5.300000e+002 1.030000e+003
         vertex 0.000000e+000 -5.000000e+002 9.700000e+002
         vertex 0.000000e+000 -5.000000e+002 7.090000e+002
      endloop
   endfacet
   facet normal -1.000000e+000 0.000000e+000 -0.000000e+000
      outer loop
         vertex 0.000000e+000 5.300000e+002 1.430511e-005
         vertex 0.000000e+000 5.000000e+002 1.430511e-005
         vertex 0.000000e+000 5.000000e+002 6.790000e+002
      endloop
   endfacet
   facet normal -1.000000e+000 0.000000e+000 -0.000000e+000
      outer loop
         vertex 0.000000e+000 -5.300000e+002 1.430512e-005
         vertex 0.000000e+000 -5.300000e+002 1.030000e+003
         vertex 0.000000e+000 -5.000000e+002 6.790000e+002
      endloop
   endfacet
   facet normal -1.000000e+000 0.000000e+000 -0.000000e+000
      outer loop
         vertex 0.000000e+000 -5.000000e+002 6.790000e+002
         vertex 0.000000e+000 -5.300000e+002 1.030000e+003
         vertex 0.000000e+000 -5.000000e+002 7.090000e+002
      endloop
   endfacet
   facet normal -1.000000e+000 0.000000e+000 -0.000000e+000
      outer loop
         vertex 0.000000e+000 -5.000000e+002 6.790000e+002
         vertex 0.000000e+000 -5.000000e+002 7.090000e+002
         vertex 0.000000e+000 5.000000e+002 6.790000e+002
      endloop
   endfacet
   facet normal -1.000000e+000 0.000000e+000 -0.000000e+000
      outer loop
         vertex 0.000000e+000 5.000000e+002 6.790000e+002
         vertex 0.000000e+000 -5.000000e+002 7.090000e+002
         vertex 0.000000e+000 5.000000e+002 7.090000e+002
      endloop
   endfacet
   facet normal -1.000000e+000 0.000000e+000 -0.000000e+000
      outer loop
         vertex 0.000000e+000 5.000000e+002 6.790000e+002
         vertex 0.000000e+000 5.000000e+002 7.090000e+002
         vertex 0.000000e+000 5.300000e+002 1.430511e-005
      endloop
   endfacet
   facet normal -1.000000e+000 0.000000e+000 -0.000000e+000
      outer loop
         vertex 0.000000e+000 5.300000e+002 1.430511e-005
         vertex 0.000000e+000 5.000000e+002 7.090000e+002
         vertex 0.000000e+000 5.300000e+002 1.030000e+003
      endloop
   endfacet
   facet normal 0.000000e+000 1.000000e+000 -3.233659e-016
      outer loop
         vertex 3.000000e+001 -2.100000e+002 1.000000e+003
         vertex 0.000000e+000 -2.100000e+002 1.000000e+003
         vertex 0.000000e+000 -2.100000e+002 1.030000e+003
      endloop
   endfacet
   facet normal 0.000000e+000 1.000000e+000 -3.233659e-016
      outer loop
         vertex 8.600000e+002 -2.100000e+002 1.030000e+003
         vertex 8.600000e+002 -2.100000e+002 1.000000e+003
         vertex 8.300000e+002 -2.100000e+002 1.000000e+003
      endloop
   endfacet
   facet normal 0.000000e+000 1.000000e+000 -3.233659e-016
      outer loop
         vertex 8.300000e+002 -2.100000e+002 9.700000e+002
         vertex 3.000000e+001 -2.100000e+002 9.700000e+002
         vertex 8.300000e+002 -2.100000e+002 1.000000e+003
      endloop
   endfacet
   facet normal 0.000000e+000 1.000000e+000 -3.233659e-016
      outer loop
         vertex 8.300000e+002 -2.100000e+002 1.000000e+003
         vertex 3.000000e+001 -2.100000e+002 9.700000e+002
         vertex 3.000000e+001 -2.100000e+002 1.000000e+003
      endloop
   endfacet
   facet normal 0.000000e+000 1.000000e+000 -3.233659e-016
      outer loop
         vertex 8.300000e+002 -2.100000e+002 1.000000e+003
         vertex 3.000000e+001 -2.100000e+002 1.000000e+003
         vertex 8.600000e+002 -2.100000e+002 1.030000e+003
      endloop
   endfacet
   facet normal 0.000000e+000 1.000000e+000 -3.233659e-016
      outer loop
         vertex 8.600000e+002 -2.100000e+002 1.030000e+003
         vertex 3.000000e+001 -2.100000e+002 1.000000e+003
         vertex 0.000000e+000 -2.100000e+002 1.030000e+003
      endloop
   endfacet
   facet normal -6.454785e-017 -1.000000e+000 3.233659e-016
      outer loop
         vertex 8.300000e+002 2.100000e+002 1.000000e+003
         vertex 8.600000e+002 2.100000e+002 1.000000e+003
         vertex 8.600000e+002 2.100000e+002 1.030000e+003
      endloop
   endfacet
   facet normal -6.454785e-017 -1.000000e+000 3.233659e-016
      outer loop
         vertex -4.776123e-014 2.100000e+002 1.030000e+003
         vertex 0.000000e+000 2.100000e+002 1.000000e+003
         vertex 3.000000e+001 2.100000e+002 1.000000e+003
      endloop
   endfacet
   facet normal -6.454785e-017 -1.000000e+000 3.233659e-016
      outer loop
         vertex 3.000000e+001 2.100000e+002 9.700000e+002
         vertex 8.300000e+002 2.100000e+002 9.700000e+002
         vertex 3.000000e+001 2.100000e+002 1.000000e+003
      endloop
   endfacet
   facet normal -6.454785e-017 -1.000000e+000 3.233659e-016
      outer loop
         vertex 3.000000e+001 2.100000e+002 1.000000e+003
         vertex 8.300000e+002 2.100000e+002 9.700000e+002
         vertex 8.300000e+002 2.100000e+002 1.000000e+003
      endloop
   endfacet
   facet normal -6.454785e-017 -1.000000e+000 3.233659e-016
      outer loop
         vertex 3.000000e+001 2.100000e+002 1.000000e+003
         vertex 8.300000e+002 2.100000e+002 1.000000e+003
         vertex -4.776123e-014 2.100000e+002 1.030000e+003
      endloop
   endfacet
   facet normal -6.454785e-017 -1.000000e+000 3.233659e-016
      outer loop
         vertex -4.776123e-014 2.100000e+002 1.030000e+003
         vertex 8.300000e+002 2.100000e+002 1.000000e+003
         vertex 8.600000e+002 2.100000e+002 1.030000e+003
      endloop
   endfacet
   facet normal 1.000000e+000 1.239088e-016 -4.006789e-032
      outer loop
         vertex 3.000000e+001 2.100000e+002 9.700000e+002
         vertex 3.000000e+001 2.100000e+002 1.000000e+003
         vertex 3.000000e+001 -2.100000e+002 9.700000e+002
      endloop
   endfacet
   facet normal 1.000000e+000 1.239088e-016 -4.006789e-032
      outer loop
         vertex 3.000000e+001 -2.100000e+002 9.700000e+002
         vertex 3.000000e+001 2.100000e+002 1.000000e+003
         vertex 3.000000e+001 -2.100000e+002 1.000000e+003
      endloop
   endfacet
   facet normal -1.000000e+000 0.000000e+000 -0.000000e+000
      outer loop
         vertex 8.300000e+002 -2.100000e+002 1.000000e+003
         vertex 8.300000e+002 2.100000e+002 1.000000e+003
         vertex 8.300000e+002 -2.100000e+002 9.700000e+002
      endloop
   endfacet
   facet normal -1.000000e+000 0.000000e+000 -0.000000e+000
      outer loop
         vertex 8.300000e+002 -2.100000e+002 9.700000e+002
         vertex 8.300000e+002 2.100000e+002 1.000000e+003
         vertex 8.300000e+002 2.100000e+002 9.700000e+002
      endloop
   endfacet
   facet normal 0.000000e+000 3.233659e-016 1.000000e+000
      outer loop
         vertex 3.000000e+001 2.100000e+002 1.000000e+003
         vertex 0.000000e+000 2.100000e+002 1.000000e+003
         vertex 3.000000e+001 -2.100000e+002 1.000000e+003
      endloop
   endfacet
   facet normal 0.000000e+000 3.233659e-016 1.000000e+000
      outer loop
         vertex 3.000000e+001 -2.100000e+002 1.000000e+003
         vertex 0.000000e+000 2.100000e+002 1.000000e+003
         vertex 0.000000e+000 -2.100000e+002 1.000000e+003
      endloop
   endfacet
   facet normal 0.000000e+000 -3.233659e-016 -1.000000e+000
      outer loop
         vertex 8.600000e+002 -5.000000e+002 1.430512e-005
         vertex 8.600000e+002 -5.300000e+002 1.430512e-005
         vertex 0.000000e+000 -5.000000e+002 1.430512e-005
      endloop
   endfacet
   facet normal 0.000000e+000 -3.233659e-016 -1.000000e+000
      outer loop
         vertex 0.000000e+000 -5.000000e+002 1.430512e-005
         vertex 8.600000e+002 -5.300000e+002 1.430512e-005
         vertex 0.000000e+000 -5.300000e+002 1.430512e-005
      endloop
   endfacet
   facet normal 0.000000e+000 3.233659e-016 1.000000e+000
      outer loop
         vertex 0.000000e+000 -5.300000e+002 1.030000e+003
         vertex 8.600000e+002 -5.300000e+002 1.030000e+003
         vertex 0.000000e+000 -2.100000e+002 1.030000e+003
      endloop
   endfacet
   facet normal 0.000000e+000 3.233659e-016 1.000000e+000
      outer loop
         vertex 0.000000e+000 -2.100000e+002 1.030000e+003
         vertex 8.600000e+002 -5.300000e+002 1.030000e+003
         vertex 8.600000e+002 -2.100000e+002 1.030000e+003
      endloop
   endfacet
   facet normal 0.000000e+000 -1.000000e+000 1.077886e-016
      outer loop
         vertex 8.600000e+002 -5.300000e+002 1.430512e-005
         vertex 8.600000e+002 -5.300000e+002 1.030000e+003
         vertex 0.000000e+000 -5.300000e+002 1.430512e-005
      endloop
   endfacet
   facet normal 0.000000e+000 -1.000000e+000 1.077886e-016
      outer loop
         vertex 0.000000e+000 -5.300000e+002 1.430512e-005
         vertex 8.600000e+002 -5.300000e+002 1.030000e+003
         vertex 0.000000e+000 -5.300000e+002 1.030000e+003
      endloop
   endfacet
   facet normal 0.000000e+000 -3.233659e-016 -1.000000e+000
      outer loop
         vertex 0.000000e+000 5.000000e+002 1.430511e-005
         vertex 0.000000e+000 5.300000e+002 1.430511e-005
         vertex 8.600000e+002 5.000000e+002 1.430511e-005
      endloop
   endfacet
   facet normal 0.000000e+000 -3.233659e-016 -1.000000e+000
      outer loop
         vertex 8.600000e+002 5.000000e+002 1.430511e-005
         vertex 0.000000e+000 5.300000e+002 1.430511e-005
         vertex 8.600000e+002 5.300000e+002 1.430511e-005
      endloop
   endfacet
   facet normal 0.000000e+000 1.000000e+000 -1.105049e-023
      outer loop
         vertex 8.600000e+002 5.300000e+002 1.030000e+003
         vertex 8.600000e+002 5.300000e+002 1.430511e-005
         vertex 0.000000e+000 5.300000e+002 1.030000e+003
      endloop
   endfacet
   facet normal 0.000000e+000 1.000000e+000 -1.105049e-023
      outer loop
         vertex 0.000000e+000 5.300000e+002 1.030000e+003
         vertex 8.600000e+002 5.300000e+002 1.430511e-005
         vertex 0.000000e+000 5.300000e+002 1.430511e-005
      endloop
   endfacet
   facet normal 0.000000e+000 3.233659e-016 1.000000e+000
      outer loop
         vertex 8.600000e+002 5.300000e+002 1.030000e+003
         vertex 0.000000e+000 5.300000e+002 1.030000e+003
         vertex 8.600000e+002 2.100000e+002 1.030000e+003
      endloop
   endfacet
   facet normal 0.000000e+000 3.233659e-016 1.000000e+000
      outer loop
         vertex 8.600000e+002 2.100000e+002 1.030000e+003
         vertex 0.000000e+000 5.300000e+002 1.030000e+003
         vertex 0.000000e+000 2.100000e+002 1.030000e+003
      endloop
   endfacet
   facet normal 0.000000e+000 1.000000e+000 -3.233659e-016
      outer loop
         vertex 8.300000e+002 -2.100000e+002 7.090000e+002
         vertex 8.300000e+002 -2.100000e+002 6.790000e+002
         vertex 3.000000e+001 -2.100000e+002 7.090000e+002
      endloop
   endfacet
   facet normal 0.000000e+000 1.000000e+000 -3.233659e-016
      outer loop
         vertex 3.000000e+001 -2.100000e+002 7.090000e+002
         vertex 8.300000e+002 -2.100000e+002 6.790000e+002
         vertex 3.000000e+001 -2.100000e+002 6.790000e+002
      endloop
   endfacet
   facet normal -6.454785e-017 -1.000000e+000 3.233659e-016
      outer loop
         vertex 3.000000e+001 2.100000e+002 7.090000e+002
         vertex 3.000000e+001 2.100000e+002 6.790000e+002
         vertex 8.300000e+002 2.100000e+002 7.090000e+002
      endloop
   endfacet
   facet normal -6.454785e-017 -1.000000e+000 3.233659e-016
      outer loop
         vertex 8.300000e+002 2.100000e+002 7.090000e+002
         vertex 3.000000e+001 2.100000e+002 6.790000e+002
         vertex 8.300000e+002 2.100000e+002 6.790000e+002
      endloop
   endfacet
   facet normal 0.000000e+000 3.233659e-016 1.000000e+000
      outer loop
         vertex 8.600000e+002 -2.100000e+002 1.000000e+003
         vertex 8.600000e+002 2.100000e+002 1.000000e+003
         vertex 8.300000e+002 -2.100000e+002 1.000000e+003
      endloop
   endfacet
   facet normal 0.000000e+000 3.233659e-016 1.000000e+000
      outer loop
         vertex 8.300000e+002 -2.100000e+002 1.000000e+003
         vertex 8.600000e+002 2.100000e+002 1.000000e+003
         vertex 8.300000e+002 2.100000e+002 1.000000e+003
      endloop
   endfacet
   facet normal 1.290957e-016 1.000000e+000 -3.233659e-016
      outer loop
         vertex 0.000000e+000 -5.000000e+002 6.790000e+002
         vertex 8.600000e+002 -5.000000e+002 6.790000e+002
         vertex 0.000000e+000 -5.000000e+002 1.430512e-005
      endloop
   endfacet
   facet normal 1.290957e-016 1.000000e+000 -3.233659e-016
      outer loop
         vertex 0.000000e+000 -5.000000e+002 1.430512e-005
         vertex 8.600000e+002 -5.000000e+002 6.790000e+002
         vertex 8.600000e+002 -5.000000e+002 1.430512e-005
      endloop
   endfacet
   facet normal 0.000000e+000 -1.000000e+000 3.233659e-016
      outer loop
         vertex 8.600000e+002 5.000000e+002 6.790000e+002
         vertex 0.000000e+000 5.000000e+002 6.790000e+002
         vertex 8.600000e+002 5.000000e+002 1.430511e-005
      endloop
   endfacet
   facet normal 0.000000e+000 -1.000000e+000 3.233659e-016
      outer loop
         vertex 8.600000e+002 5.000000e+002 1.430511e-005
         vertex 0.000000e+000 5.000000e+002 6.790000e+002
         vertex 0.000000e+000 5.000000e+002 1.430511e-005
      endloop
   endfacet
   facet normal 0.000000e+000 -3.233659e-016 -1.000000e+000
      outer loop
         vertex 3.000000e+001 -2.100000e+002 6.790000e+002
         vertex 0.000000e+000 -5.000000e+002 6.790000e+002
         vertex 3.000000e+001 2.100000e+002 6.790000e+002
      endloop
   endfacet
   facet normal 0.000000e+000 -3.233659e-016 -1.000000e+000
      outer loop
         vertex 3.000000e+001 2.100000e+002 6.790000e+002
         vertex 0.000000e+000 -5.000000e+002 6.790000e+002
         vertex 0.000000e+000 5.000000e+002 6.790000e+002
      endloop
   endfacet
   facet normal 0.000000e+000 -3.233659e-016 -1.000000e+000
      outer loop
         vertex 3.000000e+001 2.100000e+002 6.790000e+002
         vertex 0.000000e+000 5.000000e+002 6.790000e+002
         vertex 8.300000e+002 2.100000e+002 6.790000e+002
      endloop
   endfacet
   facet normal 0.000000e+000 -3.233659e-016 -1.000000e+000
      outer loop
         vertex 8.300000e+002 2.100000e+002 6.790000e+002
         vertex 0.000000e+000 5.000000e+002 6.790000e+002
         vertex 8.600000e+002 5.000000e+002 6.790000e+002
      endloop
   endfacet
   facet normal 0.000000e+000 -3.233659e-016 -1.000000e+000
      outer loop
         vertex 8.300000e+002 2.100000e+002 6.790000e+002
         vertex 8.600000e+002 5.000000e+002 6.790000e+002
         vertex 8.300000e+002 -2.100000e+002 6.790000e+002
      endloop
   endfacet
   facet normal 0.000000e+000 -3.233659e-016 -1.000000e+000
      outer loop
         vertex 8.300000e+002 -2.100000e+002 6.790000e+002
         vertex 8.600000e+002 5.000000e+002 6.790000e+002
         vertex 8.600000e+002 -5.000000e+002 6.790000e+002
      endloop
   endfacet
   facet normal 0.000000e+000 -3.233659e-016 -1.000000e+000
      outer loop
         vertex 8.300000e+002 -2.100000e+002 6.790000e+002
         vertex 8.600000e+002 -5.000000e+002 6.790000e+002
         vertex 3.000000e+001 -2.100000e+002 6.790000e+002
      endloop
   endfacet
   facet normal 0.000000e+000 -3.233659e-016 -1.000000e+000
      outer loop
         vertex 3.000000e+001 -2.100000e+002 6.790000e+002
         vertex 8.600000e+002 -5.000000e+002 6.790000e+002
         vertex 0.000000e+000 -5.000000e+002 6.790000e+002
      endloop
   endfacet
   facet normal 1.000000e+000 1.239088e-016 -4.006789e-032
      outer loop
         vertex 3.000000e+001 -2.100000e+002 6.790000e+002
         vertex 3.000000e+001 2.100000e+002 6.790000e+002
         vertex 3.000000e+001 -2.100000e+002 7.090000e+002
      endloop
   endfacet
   facet normal 1.000000e+000 1.239088e-016 -4.006789e-032
      outer loop
         vertex 3.000000e+001 -2.100000e+002 7.090000e+002
         vertex 3.000000e+001 2.100000e+002 6.790000e+002
         vertex 3.000000e+001 2.100000e+002 7.090000e+002
      endloop
   endfacet
   facet normal -1.000000e+000 0.000000e+000 -0.000000e+000
      outer loop
         vertex 8.300000e+002 2.100000e+002 7.090000e+002
         vertex 8.300000e+002 2.100000e+002 6.790000e+002
         vertex 8.300000e+002 -2.100000e+002 7.090000e+002
      endloop
   endfacet
   facet normal -1.000000e+000 0.000000e+000 -0.000000e+000
      outer loop
         vertex 8.300000e+002 -2.100000e+002 7.090000e+002
         vertex 8.300000e+002 2.100000e+002 6.790000e+002
         vertex 8.300000e+002 -2.100000e+002 6.790000e+002
      endloop
   endfacet
   facet normal 0.000000e+000 1.000000e+000 -3.233659e-016
      outer loop
         vertex 0.000000e+000 -5.000000e+002 7.090000e+002
         vertex 0.000000e+000 -5.000000e+002 9.700000e+002
         vertex 8.600000e+002 -5.000000e+002 7.090000e+002
      endloop
   endfacet
   facet normal 0.000000e+000 1.000000e+000 -3.233659e-016
      outer loop
         vertex 8.600000e+002 -5.000000e+002 7.090000e+002
         vertex 0.000000e+000 -5.000000e+002 9.700000e+002
         vertex 8.600000e+002 -5.000000e+002 9.700000e+002
      endloop
   endfacet
   facet normal 0.000000e+000 -3.233659e-016 -1.000000e+000
      outer loop
         vertex 3.000000e+001 -2.100000e+002 9.700000e+002
         vertex 0.000000e+000 -5.000000e+002 9.700000e+002
         vertex 3.000000e+001 2.100000e+002 9.700000e+002
      endloop
   endfacet
   facet normal 0.000000e+000 -3.233659e-016 -1.000000e+000
      outer loop
         vertex 3.000000e+001 2.100000e+002 9.700000e+002
         vertex 0.000000e+000 -5.000000e+002 9.700000e+002
         vertex 0.000000e+000 5.000000e+002 9.700000e+002
      endloop
   endfacet
   facet normal 0.000000e+000 -3.233659e-016 -1.000000e+000
      outer loop
         vertex 3.000000e+001 2.100000e+002 9.700000e+002
         vertex 0.000000e+000 5.000000e+002 9.700000e+002
         vertex 8.300000e+002 2.100000e+002 9.700000e+002
      endloop
   endfacet
   facet normal 0.000000e+000 -3.233659e-016 -1.000000e+000
      outer loop
         vertex 8.300000e+002 2.100000e+002 9.700000e+002
         vertex 0.000000e+000 5.000000e+002 9.700000e+002
         vertex 8.600000e+002 5.000000e+002 9.700000e+002
      endloop
   endfacet
   facet normal 0.000000e+000 -3.233659e-016 -1.000000e+000
      outer loop
         vertex 8.300000e+002 2.100000e+002 9.700000e+002
         vertex 8.600000e+002 5.000000e+002 9.700000e+002
         vertex 8.300000e+002 -2.100000e+002 9.700000e+002
      endloop
   endfacet
   facet normal 0.000000e+000 -3.233659e-016 -1.000000e+000
      outer loop
         vertex 8.300000e+002 -2.100000e+002 9.700000e+002
         vertex 8.600000e+002 5.000000e+002 9.700000e+002
         vertex 8.600000e+002 -5.000000e+002 9.700000e+002
      endloop
   endfacet
   facet normal 0.000000e+000 -3.233659e-016 -1.000000e+000
      outer loop
         vertex 8.300000e+002 -2.100000e+002 9.700000e+002
         vertex 8.600000e+002 -5.000000e+002 9.700000e+002
         vertex 3.000000e+001 -2.100000e+002 9.700000e+002
      endloop
   endfacet
   facet normal 0.000000e+000 -3.233659e-016 -1.000000e+000
      outer loop
         vertex 3.000000e+001 -2.100000e+002 9.700000e+002
         vertex 8.600000e+002 -5.000000e+002 9.700000e+002
         vertex 0.000000e+000 -5.000000e+002 9.700000e+002
      endloop
   endfacet
   facet normal 0.000000e+000 -1.000000e+000 3.233659e-016
      outer loop
         vertex 0.000000e+000 5.000000e+002 9.700000e+002
         vertex 0.000000e+000 5.000000e+002 7.090000e+002
         vertex 8.600000e+002 5.000000e+002 9.700000e+002
      endloop
   endfacet
   facet normal 0.000000e+000 -1.000000e+000 3.233659e-016
      outer loop
         vertex 8.600000e+002 5.000000e+002 9.700000e+002
         vertex 0.000000e+000 5.000000e+002 7.090000e+002
         vertex 8.600000e+002 5.000000e+002 7.090000e+002
      endloop
   endfacet
   facet normal 0.000000e+000 3.233659e-016 1.000000e+000
      outer loop
         vertex 0.000000e+000 -5.000000e+002 7.090000e+002
         vertex 3.000000e+001 -2.100000e+002 7.090000e+002
         vertex 3.000000e+001 2.100000e+002 7.090000e+002
      endloop
   endfacet
   facet normal 0.000000e+000 3.233659e-016 1.000000e+000
      outer loop
         vertex 3.000000e+001 -2.100000e+002 7.090000e+002
         vertex 0.000000e+000 -5.000000e+002 7.090000e+002
         vertex 8.300000e+002 -2.100000e+002 7.090000e+002
      endloop
   endfacet
   facet normal 0.000000e+000 3.233659e-016 1.000000e+000
      outer loop
         vertex 8.300000e+002 -2.100000e+002 7.090000e+002
         vertex 0.000000e+000 -5.000000e+002 7.090000e+002
         vertex 8.600000e+002 -5.000000e+002 7.090000e+002
      endloop
   endfacet
   facet normal 0.000000e+000 3.233659e-016 1.000000e+000
      outer loop
         vertex 8.300000e+002 -2.100000e+002 7.090000e+002
         vertex 8.600000e+002 -5.000000e+002 7.090000e+002
         vertex 8.300000e+002 2.100000e+002 7.090000e+002
      endloop
   endfacet
   facet normal 0.000000e+000 3.233659e-016 1.000000e+000
      outer loop
         vertex 8.300000e+002 2.100000e+002 7.090000e+002
         vertex 8.600000e+002 -5.000000e+002 7.090000e+002
         vertex 8.600000e+002 5.000000e+002 7.090000e+002
      endloop
   endfacet
   facet normal 0.000000e+000 3.233659e-016 1.000000e+000
      outer loop
         vertex 8.300000e+002 2.100000e+002 7.090000e+002
         vertex 8.600000e+002 5.000000e+002 7.090000e+002
         vertex 3.000000e+001 2.100000e+002 7.090000e+002
      endloop
   endfacet
   facet normal 0.000000e+000 3.233659e-016 1.000000e+000
      outer loop
         vertex 3.000000e+001 2.100000e+002 7.090000e+002
         vertex 8.600000e+002 5.000000e+002 7.090000e+002
         vertex 0.000000e+000 5.000000e+002 7.090000e+002
      endloop
   endfacet
   facet normal 0.000000e+000 3.233659e-016 1.000000e+000
      outer loop
         vertex 3.000000e+001 2.100000e+002 7.090000e+002
         vertex 0.000000e+000 5.000000e+002 7.090000e+002
         vertex 0.000000e+000 -5.000000e+002 7.090000e+002
      endloop
   endfacet
endsolid